<svg width="18" height="18" fill="none" xmlns="http://www.w3.org/2000/svg"><path fill-rule="evenodd" clip-rule="evenodd" d="M15.93 2.093c.978.974 1.283 2.157 1.346 3.492.078 1.376.078 5.497 0 6.873-.067 1.335-.372 2.518-1.346 3.492-.974.978-2.156 1.283-3.491 1.346-1.376.078-5.5.078-6.875 0-1.335-.067-2.514-.372-3.492-1.346-.977-.974-1.282-2.157-1.345-3.492-.079-1.376-.079-5.5 0-6.877.066-1.335.368-2.517 1.345-3.492C3.05 1.115 4.232.81 5.564.747c1.376-.078 5.499-.078 6.875 0 1.335.067 2.517.372 3.491 1.346zM9.002 6.64a2.381 2.381 0 100 4.762 2.381 2.381 0 000-4.762zM4.24 9.021a4.762 4.762 0 119.524 0 4.762 4.762 0 01-9.524 0zm9.524-3.571a1.19 1.19 0 100-2.381 1.19 1.19 0 000 2.381z" fill="#171729"/></svg>