<svg width="18" height="15" fill="none" xmlns="http://www.w3.org/2000/svg"><path fill-rule="evenodd" clip-rule="evenodd" d="M8.472 6.784c.133-.09.266-.178.4-.267l.244-.175a42.1 42.1 0 01.979-.684c.205-.143.41-.288.614-.434.5-.354.998-.709 1.516-1.036a2.62 2.62 0 01.574-.29l.005-.001c.079-.027.168-.056.236.007.067.062.045.141.024.215l-.008.026a.51.51 0 01-.123.23c-.77.832-1.61 1.595-2.453 2.359l-.375.34-.032.017-.485.455c-.344.323-.686.645-1.033.966-.274.253-.5.537-.612.902-.102.338-.016.746.338.976.252.163.498.335.743.508.153.107.305.214.46.319l1.331.9c.888.6 1.776 1.2 2.66 1.804.767.526 1.84.107 2.023-.8.04-.187.072-.378.103-.57l.03-.18.312-1.833.311-1.832c.038-.215.074-.428.11-.641.036-.214.072-.427.11-.642a.827.827 0 00.005-.059c.002-.02.003-.04.006-.059l.025-.157c.062-.376.122-.748.179-1.125.14-.917.273-1.83.407-2.742a23.297 23.297 0 00.236-2.167.663.663 0 00-.225-.569c-.204-.182-.461-.198-.719-.188a3.09 3.09 0 00-.928.199c-.67.257-1.336.515-2.001.778a351.508 351.508 0 00-7.485 3.08c-.304.128-.608.262-.912.395a150.355 150.355 0 01-.94.413c-.36.156-.717.313-1.072.48-.644.294-1.288.6-1.91.943l-.017.01c-.129.072-.26.146-.358.264-.13.15-.13.284 0 .435.08.09.182.166.29.22 1.056.525 2.156.928 3.326 1.105a2.371 2.371 0 001.652-.338c.188-.118.379-.234.57-.35.293-.179.587-.357.873-.546.334-.219.664-.44.996-.661z" fill="#171729"/></svg>