<svg width="18" height="14" fill="none" xmlns="http://www.w3.org/2000/svg"><path d="M17.335 1.958a6.803 6.803 0 01-1.964.538A3.425 3.425 0 0016.874.604a6.845 6.845 0 01-2.171.83 3.42 3.42 0 00-5.826 3.119A9.709 9.709 0 011.828.981 3.402 3.402 0 001.366 2.7c0 1.186.603 2.233 1.52 2.846a3.41 3.41 0 01-1.548-.428v.043A3.422 3.422 0 004.08 8.514a3.438 3.438 0 01-1.545.058 3.423 3.423 0 003.194 2.375 6.86 6.86 0 01-5.062 1.416 9.676 9.676 0 005.242 1.536c6.29 0 9.728-5.21 9.728-9.729 0-.148-.003-.296-.01-.443a6.923 6.923 0 001.707-1.769z" fill="#18191B"/></svg>