<svg width="71" height="73" fill="none" xmlns="http://www.w3.org/2000/svg"><path fill-rule="evenodd" clip-rule="evenodd" d="M2.883 7.48a7.2 7.2 0 017.2-7.2h50.4a7.2 7.2 0 017.2 7.2v57.6a7.2 7.2 0 01-7.2 7.2h-50.4a7.2 7.2 0 01-7.2-7.2V7.48zm16.2-1.8a2.7 2.7 0 11-5.4 0 2.7 2.7 0 015.4 0zm35.1 2.7a2.7 2.7 0 100-5.4 2.7 2.7 0 000 5.4z" fill="#fff"/><path d="M7.33 72.28h55.91c4.291 0 7.63-3.73 7.156-7.995L67.685 39.88h-64.8L.174 64.285C-.3 68.55 3.038 72.28 7.33 72.28z" fill="#66F0E3"/><path opacity=".4" d="M70.394 64.285L67.683 39.88h-64.8l32.4 32.4h27.956c4.29 0 7.63-3.73 7.155-7.995z" fill="url(#paint0_linear)"/><path d="M65.167 11.08H5.4a5.4 5.4 0 00-5.359 6.07l2.842 22.73h64.8l2.841-22.73a5.4 5.4 0 00-5.358-6.07z" fill="#0BC4B8"/><path d="M65.167 11.08H5.4a5.4 5.4 0 00-5.359 6.07l2.842 22.73h64.8l2.841-22.73a5.4 5.4 0 00-5.358-6.07z" fill="url(#paint1_linear)"/><defs><linearGradient id="paint0_linear" x1="36.661" y1="39.88" x2="36.661" y2="72.28" gradientUnits="userSpaceOnUse"><stop stop-color="#0BC3B8"/><stop offset="1" stop-color="#0BC3B8" stop-opacity="0"/></linearGradient><linearGradient id="paint1_linear" x1="35.284" y1="11.08" x2="35.284" y2="39.88" gradientUnits="userSpaceOnUse"><stop stop-color="#0BC3B8" stop-opacity=".4"/><stop offset="1" stop-color="#0BC3B8"/></linearGradient></defs></svg>