<svg width="23" height="22" fill="none" xmlns="http://www.w3.org/2000/svg"><circle cx="11.406" cy="11" r="8.25" stroke="#0ACCDA" stroke-width="1.8"/><path d="M9.994 9.113c0-.545.42-.886.988-.952v1.921a1.366 1.366 0 01-.168-.048c-.544-.18-.82-.49-.82-.921zm2.992 3.734c0 .587-.448.976-1.083 1.03v-2.065c.042.012.084.024.12.03.67.185.963.514.963 1.005zm-1.07 3.082l-.007-.76c1.64-.155 2.681-1.06 2.681-2.483 0-1.449-.975-2.06-2.178-2.316l-.509-.108V8.173c.635.102.988.58 1.006 1.06h1.532c-.024-1.245-1-2.19-2.514-2.352v-.778h-.97v.772c-1.448.131-2.585.927-2.585 2.363 0 1.359.982 2.053 2.095 2.299l.515.113v2.226c-.766-.101-1.167-.562-1.197-1.113H8.217c.012 1.107.754 2.274 2.735 2.418l-.006.748h.97z" fill="#0ACCDA"/></svg>