<svg width="80" height="81" fill="none" xmlns="http://www.w3.org/2000/svg"><path d="M70.4 33.728l-2.401-2.4a4.992 4.992 0 01-1.468-3.53V24.36c0-5.533-4.501-10.03-10.037-10.03H53.06a5 5 0 01-3.535-1.47l-2.434-2.43c-3.935-3.9-10.304-3.9-14.205.03l-2.401 2.4a5 5 0 01-3.535 1.47h-3.434c-5.535 0-10.037 4.497-10.037 10.03v3.4a5.014 5.014 0 01-1.467 3.567l-2.435 2.436c-3.901 3.93-3.868 10.3.034 14.197l2.4 2.367c.934.966 1.468 2.233 1.468 3.57v3.43c0 5.533 4.502 10.036 10.037 10.036h3.434c1.334 0 2.601.53 3.535 1.464l2.434 2.436a10.1 10.1 0 007.103 2.897 9.983 9.983 0 007.102-2.933l2.401-2.4a4.995 4.995 0 013.535-1.464h3.434c5.536 0 10.037-4.503 10.037-10.036v-3.43c0-1.337.534-2.604 1.468-3.537l2.367-2.367c.034-.033.067-.063.1-.1a9.916 9.916 0 002.868-7.1c0-2.666-1.034-5.2-2.934-7.066z" fill="#66F0E3"/><path d="M70.4 33.728l-2.401-2.4a4.992 4.992 0 01-1.468-3.53V24.36c0-5.533-4.501-10.03-10.037-10.03H53.06a5 5 0 01-3.535-1.47l-2.434-2.43c-3.935-3.9-10.304-3.9-14.205.03l-2.401 2.4a5 5 0 01-3.535 1.47h-3.434c-5.535 0-10.037 4.497-10.037 10.03v3.4a5.014 5.014 0 01-1.467 3.567l-2.435 2.436c-3.901 3.93-3.868 10.3.034 14.197l2.4 2.367c.934.966 1.468 2.233 1.468 3.57v3.43c0 5.533 4.502 10.036 10.037 10.036h3.434c1.334 0 2.601.53 3.535 1.464l2.434 2.436a10.1 10.1 0 007.103 2.897 9.983 9.983 0 007.102-2.933l2.401-2.4a4.995 4.995 0 013.535-1.464h3.434c5.536 0 10.037-4.503 10.037-10.036v-3.43c0-1.337.534-2.604 1.468-3.537l2.367-2.367c.034-.033.067-.063.1-.1a9.916 9.916 0 002.868-7.1c0-2.666-1.034-5.2-2.934-7.066z" fill="url(#paint0_linear)"/><path d="M55 30.84l-20 20-10-10" stroke="#fff" stroke-width="4" stroke-linecap="round" stroke-linejoin="round"/><defs><linearGradient id="paint0_linear" x1="40.001" y1="7.51" x2="40.001" y2="74.161" gradientUnits="userSpaceOnUse"><stop stop-color="#0BC3B8" stop-opacity=".4"/><stop offset="1" stop-color="#0BC3B8"/></linearGradient></defs></svg>