<svg width="25" height="25" fill="none" xmlns="http://www.w3.org/2000/svg"><path d="M20.555 5.375H4.445a1.945 1.945 0 00-1.06 3.575l7.371 4.791c.631.41.947.616 1.287.696.3.07.613.07.914 0 .34-.08.656-.285 1.287-.696h0l7.371-4.79a1.945 1.945 0 00-1.06-3.576z" stroke="#0ACCDA" stroke-width="1.8"/><path d="M22 8.875v8.3c0 1.12 0 1.68-.218 2.108a2 2 0 01-.874.874c-.428.218-.988.218-2.108.218H6.2c-1.12 0-1.68 0-2.108-.218a2 2 0 01-.874-.874C3 18.855 3 18.295 3 17.175v-8.3" stroke="#0ACCDA" stroke-width="1.8" stroke-linecap="round" stroke-linejoin="round"/></svg>