<svg width="80" height="82" fill="none" xmlns="http://www.w3.org/2000/svg"><circle cx="40" cy="41.28" r="40" fill="#C4C4C4"/><circle cx="40" cy="41.28" r="40" fill="url(#paint0_linear)"/><circle opacity=".4" cx="40" cy="41.28" r="26" stroke="#fff" stroke-width="4"/><path opacity=".4" d="M54 41.28c0 7.732-6.268 14-14 14s-14-6.268-14-14 6.268-14 14-14 14 6.268 14 14z" stroke="#fff" stroke-width="4"/><g filter="url(#filter0_d)"><path d="M57.4 53.88l4.8-1 5.8 4.2-4.8 1v5.2l-5.8-4.2v-5.2z" fill="#fff"/><path d="M40 41.28l17.4 12.6m5.8 4.2l-5.8-4.2m5.8 4.2l4.8-1-5.8-4.2-4.8 1m5.8 4.2v5.2l-5.8-4.2v-5.2" stroke="#fff" stroke-width="4" stroke-linecap="round" stroke-linejoin="round"/></g><defs><linearGradient id="paint0_linear" x1="40" y1="1.28" x2="40" y2="81.28" gradientUnits="userSpaceOnUse"><stop stop-color="#0BC3B8" stop-opacity=".4"/><stop offset="1" stop-color="#0BC3B8"/></linearGradient><filter id="filter0_d" x="34" y="39.28" width="40" height="34" filterUnits="userSpaceOnUse" color-interpolation-filters="sRGB"><feFlood flood-opacity="0" result="BackgroundImageFix"/><feColorMatrix in="SourceAlpha" values="0 0 0 0 0 0 0 0 0 0 0 0 0 0 0 0 0 0 127 0"/><feOffset dy="4"/><feGaussianBlur stdDeviation="2"/><feColorMatrix values="0 0 0 0 0.0901961 0 0 0 0 0.0901961 0 0 0 0 0.160784 0 0 0 0.16 0"/><feBlend in2="BackgroundImageFix" result="effect1_dropShadow"/><feBlend in="SourceGraphic" in2="effect1_dropShadow" result="shape"/></filter></defs></svg>