<svg width="23" height="22" fill="none" xmlns="http://www.w3.org/2000/svg"><circle cx="11.407" cy="11" r="9.167" stroke="#0ACCDA" stroke-width="1.8"/><path d="M11.43 5c.352 0 .635.128.848.384.224.256.326.57.304.944-.01.363-.133.672-.368.928a1.168 1.168 0 01-.88.368c-.362 0-.656-.123-.88-.368a1.338 1.338 0 01-.304-.928c.022-.373.16-.688.416-.944S11.11 5 11.43 5zm-.56 4.032c.555 0 .939.17 1.152.512.224.33.336.779.336 1.344 0 .256-.026.603-.08 1.04-.053.437-.112.896-.176 1.376-.064.48-.122.917-.176 1.312a7.25 7.25 0 00-.08.864c0 .17.027.283.08.336.054.053.107.08.16.08.128 0 .256-.09.384-.272.128-.181.262-.512.4-.992l.864.256c-.042.224-.128.48-.256.768a3.657 3.657 0 01-.48.832c-.202.256-.448.47-.736.64-.277.17-.597.256-.96.256-.586 0-.992-.16-1.216-.48-.213-.32-.32-.763-.32-1.328 0-.31.027-.677.08-1.104.054-.427.112-.864.176-1.312.075-.448.139-.864.192-1.248.054-.395.08-.72.08-.976 0-.181-.026-.293-.08-.336a.245.245 0 00-.176-.08c-.117 0-.24.09-.368.272-.128.181-.261.512-.4.992l-.864-.256c.043-.224.128-.48.256-.768.128-.288.294-.56.496-.816.214-.267.459-.485.736-.656.288-.17.614-.256.976-.256z" fill="#0ACCDA"/></svg>