<svg width="80" height="81" fill="none" xmlns="http://www.w3.org/2000/svg"><path d="M69.333 5.28H10.667C4.776 5.28 0 10.056 0 15.947v38.667c0 5.89 4.776 10.666 10.667 10.666h2v7.895c0 1.668 1.92 2.603 3.232 1.575L28 65.28h41.333C75.224 65.28 80 60.505 80 54.614V15.947C80 10.056 75.224 5.28 69.333 5.28z" fill="#C4C4C4"/><path d="M69.333 5.28H10.667C4.776 5.28 0 10.056 0 15.947v38.667c0 5.89 4.776 10.666 10.667 10.666h2v7.895c0 1.668 1.92 2.603 3.232 1.575L28 65.28h41.333C75.224 65.28 80 60.505 80 54.614V15.947C80 10.056 75.224 5.28 69.333 5.28z" fill="url(#paint0_linear)"/><path d="M61 57.28c6.075 0 11-4.925 11-11s-4.925-11-11-11-11 4.925-11 11 4.925 11 11 11z" fill="#fff" fill-opacity=".32"/><mask id="a" maskUnits="userSpaceOnUse" x="50" y="35" width="22" height="23"><path d="M61 57.28c6.075 0 11-4.925 11-11s-4.925-11-11-11-11 4.925-11 11 4.925 11 11 11z" fill="url(#paint1_linear)"/></mask><g filter="url(#filter0_d)" mask="url(#a)"><path d="M63.098 52.306c-.062-.688-.038-1.17-.038-1.799.312-.164.871-1.207.965-2.09.246-.02.633-.259.746-1.204.061-.507-.182-.793-.33-.882.4-1.2 1.229-4.915-1.533-5.299-.285-.5-1.012-.752-1.958-.752-3.785.07-4.241 2.858-3.411 6.05-.148.09-.39.376-.33.883.114.945.5 1.185.745 1.205.094.881.676 1.925.989 2.089 0 .63.023 1.11-.04 1.8-.538 1.448-3.306 1.562-4.903 2.959 1.67 1.68 4.375 2.883 7.23 2.883 2.855 0 6.211-2.254 6.77-2.869-1.587-1.41-4.361-1.52-4.902-2.974z" fill="#fff" fill-opacity=".8"/></g><defs><linearGradient id="paint0_linear" x1="40" y1="5.28" x2="40" y2="77.28" gradientUnits="userSpaceOnUse"><stop stop-color="#0BC3B8" stop-opacity=".4"/><stop offset="1" stop-color="#0BC3B8"/></linearGradient><linearGradient id="paint1_linear" x1="61" y1="35.28" x2="61" y2="57.28" gradientUnits="userSpaceOnUse"><stop stop-color="#D5D5D6"/><stop offset="1" stop-color="#9FA4B1"/></linearGradient><filter id="filter0_d" x="50" y="40.28" width="22" height="25.869" filterUnits="userSpaceOnUse" color-interpolation-filters="sRGB"><feFlood flood-opacity="0" result="BackgroundImageFix"/><feColorMatrix in="SourceAlpha" values="0 0 0 0 0 0 0 0 0 0 0 0 0 0 0 0 0 0 127 0"/><feOffset dy="4"/><feGaussianBlur stdDeviation="2"/><feColorMatrix values="0 0 0 0 0 0 0 0 0 0 0 0 0 0 0 0 0 0 0.24 0"/><feBlend in2="BackgroundImageFix" result="effect1_dropShadow"/><feBlend in="SourceGraphic" in2="effect1_dropShadow" result="shape"/></filter></defs></svg>