<svg width="17" height="17" fill="none" xmlns="http://www.w3.org/2000/svg"><g clip-path="url(#clip0)"><path d="M12.486 1.589a20.77 20.77 0 012.55-.777 1.184 1.184 0 011.207.42c.227.288.309.656.225 1.013a21.02 21.02 0 01-.777 2.55l-3.205-3.206zm.992 10.245a.57.57 0 01-.101.452l-3.163 4.264a.57.57 0 01-.994-.535c.007-.02.625-1.748.48-2.94a4.328 4.328 0 00-.317-1.177c-.201.04-.402.06-.601.067l-.35 1.153a.57.57 0 01-.949.238l-.09-.09c-.272.548-.72 1.248-1.4 1.754-1.114.828-3.312.893-3.959.893l-.107-.001a.57.57 0 01-.559-.559c-.006-.285-.03-2.825.892-4.065.507-.68 1.206-1.129 1.755-1.4l-.09-.09a.57.57 0 01.237-.95l1.152-.35a3.74 3.74 0 01.069-.6 4.324 4.324 0 00-1.178-.318 3.197 3.197 0 00-.383-.021c-1.161 0-2.543.496-2.557.501a.57.57 0 01-.534-.994l4.263-3.162a.57.57 0 01.452-.102c.058.012.303.07 1.004.331a8.96 8.96 0 011.008.462c1.183-1.115 2.568-1.935 3.888-2.533l3.873 3.872c-.6 1.32-1.42 2.705-2.534 3.888.157.299.334.663.462 1.008.26.701.319.946.33 1.004zm-6.949.568L4.877 10.75c-.427.172-1.209.557-1.701 1.219-.462.62-.618 1.936-.657 2.792 1.023-.045 2.224-.233 2.792-.656.659-.49 1.045-1.274 1.218-1.703zm5.693-4.181a2.22 2.22 0 00.655-1.582c0-.597-.232-1.159-.655-1.581a2.222 2.222 0 00-1.581-.655c-.598 0-1.16.233-1.582.655a2.222 2.222 0 00-.655 1.581c0 .598.233 1.16.655 1.582.423.422.984.655 1.582.655.597 0 1.159-.233 1.581-.655zm-1.581-2.677c-.293 0-.568.114-.775.32a1.088 1.088 0 00-.32.775c0 .293.113.568.32.775.207.207.482.321.775.321.293 0 .568-.114.774-.32a1.09 1.09 0 00.322-.776c0-.292-.114-.567-.322-.774a1.089 1.089 0 00-.774-.321z" fill="#0ACCDA"/></g><defs><clipPath id="clip0"><path fill="#fff" transform="translate(.5 .78)" d="M0 0h16v16H0z"/></clipPath></defs></svg>