<svg width="17" height="17" fill="none" xmlns="http://www.w3.org/2000/svg"><path fill-rule="evenodd" clip-rule="evenodd" d="M11.273 6.27a2.805 2.805 0 01-2.806 2.822 2.805 2.805 0 01-2.806-2.823 2.804 2.804 0 012.806-2.822 2.804 2.804 0 012.806 2.822zm-2.806 7.844c-2.287 0-4.24-.363-4.24-1.813 0-1.451 1.94-1.827 4.24-1.827 2.288 0 4.241.362 4.241 1.813s-1.94 1.827-4.24 1.827zm4.005-7.794c0 .799-.238 1.542-.656 2.16a.106.106 0 00.071.164c.105.018.213.028.323.03 1.095.03 2.078-.68 2.35-1.747.402-1.586-.779-3.01-2.283-3.01-.164 0-.32.018-.472.05a.084.084 0 00-.055.032c-.015.023-.004.054.01.074a3.87 3.87 0 01.713 2.247zm1.815 3.469c.736.145 1.22.44 1.42.87.17.352.17.76 0 1.112-.306.666-1.296.88-1.68.935-.08.012-.143-.057-.135-.136.197-1.846-1.366-2.72-1.77-2.921-.017-.01-.02-.023-.019-.032.001-.006.008-.015.022-.017.874-.016 1.814.104 2.162.189zM4.793 8.675c.11-.003.217-.013.322-.031a.106.106 0 00.07-.163 3.843 3.843 0 01-.655-2.16c0-.834.26-1.611.712-2.248.014-.02.024-.05.01-.073-.011-.018-.034-.029-.054-.033a2.347 2.347 0 00-.473-.05c-1.504 0-2.686 1.424-2.283 3.01.272 1.068 1.255 1.777 2.35 1.748zm.106.942c.002.009-.002.022-.018.032-.405.2-1.967 1.076-1.77 2.92.008.08-.056.149-.135.138-.384-.056-1.374-.27-1.68-.935a1.278 1.278 0 010-1.113c.2-.43.684-.725 1.42-.87.348-.085 1.287-.205 2.162-.189.013.002.02.011.021.017z" fill="#0ACCDA"/></svg>