<svg width="65" height="65" fill="none" xmlns="http://www.w3.org/2000/svg"><g opacity=".24" fill="#fff"><path d="M14.289 58.63c3.34-13.854-.625-14.328-.625-21.05 0-2.24 1.767-7.605 2.025-10.212.604-5.99-.883-4.395 3.49-8.834l.26-6.161c2.197-2.112 3.296-4.008 5.989-3.34 1.637 4.87-1.465 3.34-1.767 9.027 1.831 2.435 3.06 2.672 4.438 5.732 1.746 3.878.496 3.834 3.792 7.088 4.848.56 7.778.582 11.247-2.909.366-3.727-1.788-3.404.41-6.83 1.508-2.348 2.994-3.62 5.817-2.671.926 3.663-3.232 4.417-1.94 8.489 5.58.56 6.873-7.132 11.14-7.52 0 8.21-8.576 9.286-8.77 15.965-.129 4.18 3.577 15.685 7.326 18.141 3.296-5.063 6.851-10.578 7.26-16.697C67.248-4.907 12.006-12.512 1.514 24.05A28.716 28.716 0 00.5 29.716v4.848c.926 12.022 8.338 22.58 13.789 24.066z"/><path d="M30.448 64.232c14.93 1.767 13.358-2.844 10.406-19.843-1.163-6.7-2.52-10.234-10.47-9.61-4.956 5.882-2.457 17.345-2.285 22.365.13 3.964-.538 4.223 2.349 7.088zm17.171-4.094c2.5-.301 2.93-.818 4.956-2.434.323-3.426-2.026-8.941-5.688-10.04-1.724 3.318-1.228 9.221.732 12.474zm-24.604 2.844c0-4.18.517-12.82-1.638-15.792-2.865.84-1.982 3.296-2.003 8.532-.022 3.835-.733 6.873 3.64 7.26z"/></g></svg>