<svg width="1056" height="163" fill="none" xmlns="http://www.w3.org/2000/svg"><g filter="url(#filter0_d)"><path d="M19.406 76.004h-2v2h2v-2zm45.715-10.206l-.934-1.768.934 1.768zm-45.715 9.206v-2h-2v2h2zm45.248-10.09l.935 1.768-.935-1.768zm28.233-22.238l-1.409-1.42 1.41 1.42zm2.679-2.67l1.414 1.414-1.414-1.414zm123.046 2.657l1.441-1.387-1.441 1.387zm.021.021l-1.442 1.387h.001l1.441-1.387zm125.113 13.144l1.043 1.706.006-.004-1.049-1.702zm.004-.003l-1.043-1.706-.006.004 1.049 1.702zm126.744-5.809l-.78 1.842.78-1.842zm.007.003l.78-1.841-.78 1.841zm63.104 13.434h2v-2h-2v2zm0 1v2h2v-2h-2zm-63.501-13.516l.78-1.842h-.001l-.779 1.842zm-.008-.003l-.78 1.841.78-1.841zm-125.821 5.742l-1.043-1.706-.006.003 1.049 1.703zm-.004.002l1.044 1.707.006-.004-1.05-1.703zM217.933 43.4l1.441-1.388h-.001l-1.44 1.388zm-.021-.022l-1.44 1.387.001.001 1.439-1.388zm-121.663-2.64l-1.413-1.416 1.413 1.415zm-2.657 2.648l-1.41-1.42 1.41 1.42zm439.806 21.067h-2v2h2v-2zm65.253-26.796l-1.247-1.564h-.001l1.248 1.564zm-65.253 25.796v-2h-2v2h2zm64.641-26.588l-1.246-1.564h-.001l1.247 1.564zm.013-.01l1.247 1.564-1.247-1.564zm132.546 12.196l-1.477 1.349 1.477-1.349zm.045.05l1.477-1.349-1.477 1.348zM834.27 80.782l-.804-1.832.804 1.832zm24.311-15.502l1.236 1.572-1.236-1.572zm2.006-1.58l-1.239-1.57 1.239 1.57zm107.891-6.014l.882-1.796h-.001l-.881 1.796zm2.309 1.131l.878-1.796-.878 1.796zm65.803 16.186h2v-2h-2v2zm0 1v2h2v-2h-2zm-66.242-16.287l.878-1.797-.878 1.797zm-2.294-1.125l-.881 1.796.881-1.796zm-106.867 5.91l-1.239-1.571 1.239 1.57zm-1.988 1.565l-1.235-1.573 1.235 1.573zm-24.528 15.631l-.803-1.831.803 1.831zM729.949 49.824l1.477-1.349-1.477 1.349zm-.045-.05l-1.477 1.349 1.477-1.348zM598.663 37.648l1.247 1.564-1.247-1.564zM19.406 78.004c19.97 0 34.746-4.143 46.65-10.438l-1.87-3.536c-11.28 5.965-25.405 9.974-44.78 9.974v4zm-2-3v1h4v-1h-4zM63.72 63.146c-11.124 5.882-25.087 9.858-44.313 9.858v4c19.821 0 34.434-4.11 46.183-10.322l-1.87-3.536zm27.76-21.89c-8.157 8.098-16.596 15.986-27.76 21.89l1.87 3.536c11.724-6.2 20.516-14.455 28.707-22.586l-2.818-2.84zm2.673-2.665c-.89.89-1.78 1.778-2.674 2.666l2.818 2.839c.9-.894 1.794-1.787 2.684-2.676l-2.828-2.83zm61.364-30.532c-30.856 0-46.025 15.205-61.364 30.532l2.828 2.83c15.289-15.278 29.432-29.362 58.536-29.362v-4zm64.537 33.217C204.41 25.028 188.127 8.059 155.517 8.059v4c30.796 0 46.039 15.773 61.655 31.99l2.882-2.773zm.021.022l-.021-.022-2.882 2.773.02.022 2.883-2.773zm60.956 31.706c-30.357 0-45.34-15.488-60.956-31.707l-2.882 2.775c15.643 16.246 31.667 32.932 63.838 32.932v-4zm61.673-18.883c-15.611 9.544-30.876 18.883-61.673 18.883v4c31.902 0 47.935-9.796 63.759-19.47l-2.086-3.413zm-.002.002l-.004.002 2.098 3.405.004-.002-2.098-3.405zm64.29-19.623c-32.181 0-48.407 9.911-64.285 19.619l2.086 3.413c15.665-9.577 31.122-19.032 62.199-19.032v-4zm64.282 13.675C455.231 41.379 438.965 34.5 406.992 34.5v4c31.2 0 46.894 6.654 62.722 13.358l1.56-3.683zm.007.003l-.008-.004-1.559 3.684.008.003 1.559-3.683zm62.324 13.275c-31.002 0-46.553-6.595-62.324-13.275l-1.56 3.683c15.987 6.771 32.109 13.592 63.884 13.592v-4zm2 3v-1h-4v1h4zM469.323 52.78c16.043 6.795 32.309 13.674 64.282 13.674v-4c-31.2 0-46.894-6.654-62.721-13.358l-1.561 3.684zm-.007-.003l.008.003 1.559-3.684-.008-.003-1.559 3.684zM406.992 39.5c31.002 0 46.553 6.595 62.324 13.275l1.56-3.683C454.889 42.321 438.767 35.5 406.992 35.5v4zm-61.673 18.882c15.61-9.543 30.875-18.882 61.673-18.882v-4c-31.903 0-47.936 9.795-63.76 19.47l2.087 3.412zm.002 0l.004-.003-2.099-3.406-.004.003 2.099 3.405zM281.03 78.003c32.181 0 48.406-9.912 64.285-19.62l-2.087-3.412c-15.665 9.577-31.122 19.032-62.198 19.032v4zm-64.537-33.217c15.643 16.247 31.927 33.217 64.537 33.217v-4c-30.797 0-46.04-15.773-61.656-31.992l-2.881 2.775zm-.02-.02l.02.02 2.88-2.776-.021-.021-2.879 2.776zm-60.957-31.708c30.356 0 45.339 15.487 60.956 31.706l2.881-2.774C203.71 25.744 187.686 9.059 155.516 9.059v4zM97.663 42.152c15.295-15.28 29.171-29.093 57.853-29.093v-4c-30.436 0-45.338 14.935-60.68 30.263l2.826 2.83zM95 44.805c.893-.886 1.78-1.773 2.661-2.653l-2.827-2.83c-.881.881-1.764 1.763-2.652 2.645L95 44.805zM66.056 67.566c11.865-6.274 20.745-14.621 28.945-22.76l-2.818-2.84C84.018 50.073 75.49 58.054 64.186 64.03l1.87 3.536zm467.342-1.113c32.397 0 49.713-13.84 66.5-27.233l-2.495-3.127c-16.691 13.317-33.071 26.36-64.005 26.36v4zm-2-3v1h4v-1h-4zm65.394-28.151c-16.672 13.301-32.818 26.151-63.394 26.151v4c32.039 0 49.122-13.648 65.889-27.025l-2.495-3.126zm.013-.01l-.012.01 2.493 3.127.013-.01-2.494-3.128zm66.5-27.233c-32.397 0-49.714 13.84-66.5 27.233l2.494 3.126c16.692-13.316 33.072-26.36 64.006-26.36v-4zm68.77 39.644c-17.644-19.335-36.07-39.644-68.77-39.644v4c30.722 0 48.044 18.865 65.816 38.34l2.954-2.696zm.045.05l-.045-.05-2.954 2.697.045.049 2.954-2.697zm65.122 38.063c-30.253 0-47.301-18.535-65.122-38.064l-2.955 2.697c17.691 19.386 35.844 39.367 68.077 39.367v-4zm36.224-6.865c-9.335 4.097-20.799 6.865-36.224 6.865v4c15.938 0 27.953-2.867 37.831-7.202l-1.607-3.663zm23.88-15.243c-7.187 5.645-14.516 11.134-23.88 15.243l1.607 3.663c9.86-4.327 17.526-10.09 24.744-15.76l-2.471-3.146zm2.002-1.578c-.667.527-1.333 1.052-2.002 1.578l2.471 3.145c.672-.528 1.342-1.056 2.009-1.583l-2.478-3.14zm53.191-21.599c-25.845 0-39.481 10.782-53.191 21.6l2.478 3.14c13.611-10.74 26.316-20.74 50.713-20.74v-4zm56.82 15.36c-15.79-7.75-31.271-15.36-56.82-15.36v4c24.577 0 39.359 7.245 55.058 14.95l1.762-3.59zm2.306 1.13a990.16 990.16 0 01-2.305-1.13l-1.763 3.59c.767.378 1.538.756 2.311 1.134l1.757-3.593zm64.925 15.983c-30.94 0-48.476-7.94-64.925-15.982l-1.757 3.593c16.694 8.163 34.872 16.389 66.682 16.389v-4zm2 3v-1h-4v1h4zm-69.121-14.49c16.755 8.192 35.091 16.49 67.121 16.49v-4c-31.16 0-48.854-8.01-65.364-16.084l-1.757 3.593zm-2.296-1.126c.762.374 1.527.75 2.296 1.125l1.757-3.593-2.291-1.123-1.762 3.59zM912.539 45.53c24.342 0 38.945 7.157 54.634 14.857l1.762-3.591c-15.779-7.745-31.082-15.266-56.396-15.266v4zm-50.114 20.54c13.603-10.73 26.068-20.54 50.114-20.54v-4c-25.494 0-38.891 10.592-52.591 21.4l2.477 3.14zm-1.991 1.569c.668-.524 1.331-1.048 1.991-1.569l-2.477-3.14c-.661.521-1.321 1.042-1.984 1.563l2.47 3.146zm-24.959 15.89c9.984-4.382 17.733-10.214 24.959-15.89l-2.47-3.146c-7.195 5.651-14.608 11.21-24.096 15.373l1.607 3.663zm-38.233 7.286c16.065 0 28.22-2.892 38.233-7.286l-1.607-3.663c-9.471 4.156-21.073 6.95-36.626 6.95v4zm-68.77-39.644c17.644 19.335 36.07 39.644 68.77 39.644v-4c-30.722 0-48.044-18.865-65.816-38.34l-2.954 2.696zm-.045-.05l.045.05 2.954-2.697-.045-.049-2.954 2.697zM663.305 13.06c30.253 0 47.301 18.535 65.122 38.064l2.954-2.697C713.691 29.04 695.537 9.06 663.305 9.06v4zM599.91 39.21c16.673-13.302 32.819-26.151 63.395-26.151v-4c-32.04 0-49.122 13.647-65.889 27.024l2.494 3.127zm-.013.01l.013-.01-2.494-3.127-.012.01 2.493 3.127z" fill="#0ACCDA"/><path d="M155.105 18a8 8 0 008-8 8 8 0 10-8 8zm252 27a8 8 0 008-8 8 8 0 10-8 8zm255-27a8 8 0 008-8 8 8 0 10-8 8zm249 33a8 8 0 008-8 8 8 0 10-8 8z" fill="#fff" stroke="#0ACCDA" stroke-width="4"/></g><defs><filter id="filter0_d" x=".406" y="0" width="1055.19" height="162.816" filterUnits="userSpaceOnUse" color-interpolation-filters="sRGB"><feFlood flood-opacity="0" result="BackgroundImageFix"/><feColorMatrix in="SourceAlpha" values="0 0 0 0 0 0 0 0 0 0 0 0 0 0 0 0 0 0 127 0"/><feOffset dy="55"/><feGaussianBlur stdDeviation="8.5"/><feColorMatrix values="0 0 0 0 0 0 0 0 0 0 0 0 0 0 0 0 0 0 0.16 0"/><feBlend in2="BackgroundImageFix" result="effect1_dropShadow"/><feBlend in="SourceGraphic" in2="effect1_dropShadow" result="shape"/></filter></defs></svg>