<svg width="38" height="26" fill="none" xmlns="http://www.w3.org/2000/svg"><path d="M19.485 19.56A9.158 9.158 0 0113 22.251c-5.108 0-9.25-4.197-9.25-9.375S7.891 3.501 13 3.501a9.162 9.162 0 016.596 2.802l2.18-2.21C19.539 1.798 16.433.376 12.999.376 6.188.376.666 5.972.666 12.876c0 6.903 5.522 12.5 12.333 12.5a12.21 12.21 0 008.666-3.606l-2.18-2.21z" fill="#0ACCDA"/><path d="M23.791 8.188h-3.083v3.125h-3.084v3.125h3.084v3.126h3.083v-3.126h3.083v-3.125h-3.083V8.188zm7.709 0h3.083v3.125h3.083v3.125h-3.083v3.126h-3.084v-3.126h-3.083v-3.125h3.083V8.188z" fill="#0ACCDA"/></svg>