<svg width="40" height="41" fill="none" xmlns="http://www.w3.org/2000/svg"><path d="M13.647 11.007c-1.485.709-2.127 2.514-1.435 4.032.692 1.519 2.457 2.176 3.942 1.468l16.132-7.693c1.485-.709 2.128-2.514 1.435-4.032-.692-1.519-2.457-2.176-3.942-1.468l-16.132 7.693zM9.245 25.658c-.692-1.518-.05-3.324 1.435-4.032l16.132-7.693c1.485-.708 3.25-.051 3.943 1.467.692 1.52.05 3.324-1.435 4.032l-16.132 7.694c-1.485.708-3.25.05-3.943-1.468zM6.279 36.277c-.693-1.519-.05-3.324 1.435-4.032l16.132-7.693c1.485-.708 3.25-.051 3.942 1.467.692 1.519.05 3.324-1.435 4.032l-16.132 7.693c-1.485.708-3.25.051-3.942-1.467z" fill="#0ACCDA"/></svg>