<svg width="36" height="36" fill="none" xmlns="http://www.w3.org/2000/svg"><path fill-rule="evenodd" clip-rule="evenodd" d="M26.556 3.892h-3.803A5.269 5.269 0 0017.775.376a5.269 5.269 0 00-4.98 3.516H8.994c-2.91 0-5.268 2.343-5.268 5.234v3.83c-1.983.752-3.391 2.658-3.391 4.891s1.408 4.14 3.39 4.891v3.831c0 2.89 2.36 5.233 5.27 5.233h3.782a5.268 5.268 0 004.999 3.574c2.325 0 4.3-1.497 4.998-3.573h3.783c2.91 0 5.268-2.344 5.268-5.234v-3.787c2.045-.72 3.51-2.657 3.51-4.935 0-2.277-1.465-4.215-3.51-4.934V9.126c0-2.89-2.358-5.234-5.268-5.234zM7.237 22.824v3.745a1.75 1.75 0 001.756 1.745h3.844a5.27 5.27 0 014.938-3.404 5.27 5.27 0 014.938 3.404h3.843a1.75 1.75 0 001.756-1.745v-3.785c-2.048-.718-3.515-2.657-3.515-4.937 0-2.28 1.467-4.218 3.515-4.936V9.126a1.75 1.75 0 00-1.756-1.745h-3.822a5.269 5.269 0 01-4.96 3.461 5.269 5.269 0 01-4.958-3.46H8.993a1.75 1.75 0 00-1.756 1.744v3.745c2.11.683 3.634 2.653 3.634 4.976 0 2.324-1.524 4.294-3.634 4.977z" fill="#0ACCDA"/></svg>