<svg width="40" height="41" fill="none" xmlns="http://www.w3.org/2000/svg"><g clip-path="url(#clip0)" fill="#0BC3B8"><path d="M9.063 23.78a4.302 4.302 0 014.296-4.298h13.282a1.955 1.955 0 001.953-1.953V6.514a5.867 5.867 0 00-5.86-5.86h-5.468a5.866 5.866 0 00-5.86 5.86v3.203H20a1.172 1.172 0 110 2.343H5.86A5.866 5.866 0 000 17.92v5.469a5.866 5.866 0 005.86 5.859h3.202v-5.469zm8.203-17.188a1.172 1.172 0 110-2.344 1.172 1.172 0 010 2.344z"/><path d="M34.14 12.06h-3.203v5.47a4.302 4.302 0 01-4.296 4.296H13.359a1.955 1.955 0 00-1.953 1.953v11.016c0 3.23 2.629 5.86 5.86 5.86h5.468c3.231 0 5.86-2.63 5.86-5.86v-3.203H20a1.172 1.172 0 110-2.344h14.14a5.866 5.866 0 005.86-5.86V17.92a5.867 5.867 0 00-5.86-5.86zM22.735 34.718a1.172 1.172 0 110 2.343 1.172 1.172 0 010-2.343z"/></g><defs><clipPath id="clip0"><path fill="#fff" transform="translate(0 .654)" d="M0 0h40v40H0z"/></clipPath></defs></svg>