<svg width="36" height="37" fill="none" xmlns="http://www.w3.org/2000/svg"><path fill-rule="evenodd" clip-rule="evenodd" d="M13.09 35.18a1.636 1.636 0 11-3.272 0 1.636 1.636 0 013.273 0zm6.546 0a1.636 1.636 0 11-3.272 0 1.636 1.636 0 013.272 0zm4.91 1.636a1.636 1.636 0 100-3.272 1.636 1.636 0 000 3.272z" fill="#0ACCDA"/><path fill-rule="evenodd" clip-rule="evenodd" d="M13.09 2.453a1.636 1.636 0 11-3.272 0 1.636 1.636 0 013.273 0zm6.546 0a1.636 1.636 0 11-3.272 0 1.636 1.636 0 013.272 0zm4.91 1.636a1.636 1.636 0 100-3.273 1.636 1.636 0 000 3.273zM13.09 35.18a1.636 1.636 0 11-3.273 0 1.636 1.636 0 013.273 0zm6.545 0a1.636 1.636 0 11-3.272 0 1.636 1.636 0 013.272 0zm4.91 1.636a1.636 1.636 0 100-3.272 1.636 1.636 0 000 3.272zM36 25.362a1.636 1.636 0 10-3.273 0 1.636 1.636 0 003.273 0zm0-6.546a1.636 1.636 0 10-3.273 0 1.636 1.636 0 003.273 0zm-1.636-8.181a1.636 1.636 0 110 3.272 1.636 1.636 0 010-3.272zM1.636 23.725a1.636 1.636 0 110 3.273 1.636 1.636 0 010-3.273zm0-6.545a1.636 1.636 0 110 3.273 1.636 1.636 0 010-3.273zm1.637-4.909a1.636 1.636 0 10-3.273 0 1.636 1.636 0 003.273 0zm22.909-3.273H9.818c-.904 0-1.636.733-1.636 1.637v16.363c0 .904.732 1.637 1.636 1.637h16.364c.904 0 1.636-.733 1.636-1.637V10.635c0-.904-.732-1.637-1.636-1.637zM9.818 5.726a4.91 4.91 0 00-4.909 4.909v16.363a4.91 4.91 0 004.91 4.91h16.363a4.91 4.91 0 004.909-4.91V10.635a4.91 4.91 0 00-4.91-4.91H9.819zm11.455 9.818h-6.546v6.545h6.546v-6.545zm-9.819-3.273v13.09h13.091v-13.09h-13.09z" fill="#0ACCDA"/></svg>