<svg width="40" height="41" fill="none" xmlns="http://www.w3.org/2000/svg"><path d="M0 16.357s7.299-1.805 10.517-5.023C13.736 8.115 15.54.816 15.54.816s1.805 7.3 5.023 10.518c3.218 3.218 10.517 5.023 10.517 5.023s-7.299 1.804-10.517 5.022c-3.218 3.219-5.023 10.518-5.023 10.518s-1.804-7.3-5.023-10.518C7.3 18.161 0 16.356 0 16.356zM23.047 32.34s3.981-.984 5.737-2.74c1.755-1.755 2.74-5.736 2.74-5.736s.984 3.98 2.74 5.736C36.018 31.356 40 32.34 40 32.34s-3.981.984-5.737 2.74c-1.755 1.755-2.74 5.736-2.74 5.736s-.984-3.98-2.74-5.736c-1.755-1.756-5.736-2.74-5.736-2.74z" fill="#0ACCDA"/></svg>