<svg width="33" height="35" fill="none" xmlns="http://www.w3.org/2000/svg"><path fill-rule="evenodd" clip-rule="evenodd" d="M7 5.47a3 3 0 116 0 3 3 0 01-6 0zm3-5a5 5 0 00-2.159 9.51L4.203 24.533a5.001 5.001 0 105.736 5.721l13.555-3.614A5 5 0 1029 19.57v-9.2a5.002 5.002 0 00-1-9.9 5.002 5.002 0 00-4.9 4h-8.2a5.002 5.002 0 00-4.9-4zm4.9 6a4.978 4.978 0 01-.937 2.049l11.59 11.59a4.97 4.97 0 011.447-.54v-9.2a5.006 5.006 0 01-3.9-3.9h-8.2zm9.137 14.95L12.447 9.832a4.978 4.978 0 01-2.665.634l-3.54 14.16a5.009 5.009 0 013.598 3.586l13.165-3.51a4.978 4.978 0 011.032-3.28zM25 5.47a3 3 0 116 0 3 3 0 01-6 0zm3 16a3 3 0 100 6 3 3 0 000-6zm-26 8a3 3 0 116 0 3 3 0 01-6 0z" fill="#0ACCDA"/></svg>