<svg width="24" height="25" fill="none" xmlns="http://www.w3.org/2000/svg"><path d="M23.586 5.1H.414A.414.414 0 000 5.513V20.41c0 .228.185.414.414.414h23.172A.414.414 0 0024 20.41V5.513a.414.414 0 00-.414-.413z" fill="#26B5D7"/><path d="M2.79 6.983c-.037-.158-.046-.217.025-.288a.089.089 0 10-.126-.126c-.143.144-.11.294-.072.452-.113-.037-.231-.01-.294.07-.032.04-.092.151.021.33a.089.089 0 10.15-.095c-.043-.068-.044-.11-.032-.125.014-.017.058-.027.103-.01.03.01.098.045.098.152a.263.263 0 01-.108.214.271.271 0 01-.244.039c-.106-.033-.18-.144-.18-.272a.66.66 0 01.055-.265c.006-.012.142-.293.177-.398.069-.207-.002-.312-.05-.355a.222.222 0 00-.238-.038.206.206 0 00-.033.02.263.263 0 00-.033-.02.222.222 0 00-.239.038c-.048.043-.118.148-.05.355.036.105.172.386.176.395a.663.663 0 01.057.268c0 .128-.074.24-.18.272a.27.27 0 01-.245-.039.264.264 0 01-.108-.214c0-.107.069-.142.098-.153.046-.016.09-.006.103.011.012.016.011.057-.032.124a.089.089 0 10.15.095c.113-.178.053-.289.022-.329-.063-.08-.181-.107-.295-.07.038-.158.072-.308-.072-.452a.089.089 0 10-.126.126c.071.071.062.13.025.288a1.47 1.47 0 00-.05.36c0 .097.033.19.09.266h-.002a.089.089 0 100 .178h.003a.444.444 0 00-.092.266c0 .146.028.265.05.36.038.158.047.217-.024.288a.089.089 0 10.126.126c.144-.144.11-.294.072-.452.114.037.232.01.295-.07.031-.04.092-.151-.022-.33a.089.089 0 00-.15.096c.043.067.044.108.032.124-.014.017-.057.027-.103.01-.03-.01-.098-.045-.098-.152 0-.085.04-.163.108-.214a.27.27 0 01.244-.039c.107.033.18.144.18.272a.667.667 0 01-.056.268l-.582 1.309a.831.831 0 00-.072.34c0 .15.07.29.178.374a.475.475 0 00-.178.374c0 .118.025.232.072.34l.582 1.308a.663.663 0 01.057.268c0 .128-.074.24-.18.272a.27.27 0 01-.245-.039.264.264 0 01-.108-.214c0-.107.068-.142.098-.152.046-.016.09-.007.103.01.012.016.01.057-.032.124a.089.089 0 10.15.095c.113-.178.053-.289.022-.329-.064-.08-.181-.107-.295-.07.038-.158.072-.307-.072-.451a.089.089 0 10-.126.125c.071.071.062.13.025.288a1.47 1.47 0 00-.05.36c0 .097.033.19.09.266h-.002a.089.089 0 100 .178h.003a.444.444 0 00-.092.267c0 .146.028.264.05.36.038.158.047.216-.024.287a.089.089 0 10.126.126c.144-.144.11-.294.072-.452.114.037.232.01.295-.07.03-.04.092-.151-.022-.329a.089.089 0 00-.15.095c.043.067.044.109.032.124-.014.018-.057.027-.103.01-.03-.01-.098-.045-.098-.152 0-.085.04-.163.108-.214a.27.27 0 01.244-.039c.107.033.18.145.18.273a.67.67 0 01-.056.267l-.582 1.309a.831.831 0 00-.072.34c0 .151.07.29.178.374a.475.475 0 00-.178.374c0 .118.025.233.072.34l.582 1.309a.663.663 0 01.057.267c0 .128-.074.24-.18.272a.27.27 0 01-.245-.038A.264.264 0 011.42 18c0-.107.068-.142.098-.152.046-.016.09-.007.103.01.012.016.01.057-.032.124a.089.089 0 10.15.096c.113-.178.053-.29.022-.33-.064-.08-.181-.106-.295-.07.038-.157.072-.307-.072-.451a.089.089 0 10-.126.125c.071.072.062.13.025.289a1.49 1.49 0 00-.05.36c0 .138.066.271.177.355a.446.446 0 00-.178.355c0 .146.028.264.05.36.038.158.047.216-.024.288a.089.089 0 10.126.125c.144-.144.11-.293.072-.452.114.037.232.01.295-.07.03-.04.092-.15-.022-.329a.089.089 0 10-.15.095c.043.068.044.109.032.124-.014.018-.057.027-.103.011-.03-.01-.098-.045-.098-.152 0-.086.04-.164.108-.215a.271.271 0 01.244-.038c.107.032.18.144.18.272a.66.66 0 01-.055.265c-.005.012-.141.293-.176.398-.07.207.001.311.049.355a.22.22 0 00.239.038c.012-.006.022-.014.033-.021.01.007.02.015.033.02a.22.22 0 00.239-.038c.047-.043.118-.147.049-.354a5.578 5.578 0 00-.176-.396.664.664 0 01-.056-.267c0-.128.074-.24.18-.272a.271.271 0 01.244.038c.069.051.108.13.108.215 0 .107-.068.142-.098.152-.045.016-.089.007-.103-.011-.012-.015-.01-.056.032-.123a.089.089 0 10-.15-.096c-.113.178-.053.29-.021.33.063.079.18.106.294.07-.037.158-.071.307.073.451a.089.089 0 10.125-.125c-.07-.072-.062-.13-.024-.289.022-.095.05-.213.05-.36a.446.446 0 00-.178-.355.446.446 0 00.178-.355c0-.146-.028-.264-.05-.36-.038-.158-.047-.216.024-.288a.089.089 0 10-.125-.125c-.144.144-.11.293-.073.452-.113-.038-.231-.01-.294.07-.031.04-.092.15.021.329a.09.09 0 00.123.027.089.089 0 00.027-.123c-.042-.067-.044-.108-.032-.123.014-.018.058-.027.104-.011.029.01.098.045.098.152 0 .086-.04.164-.109.215a.27.27 0 01-.244.038c-.106-.032-.18-.144-.18-.272a.68.68 0 01.056-.267l.582-1.31a.831.831 0 00.072-.339.475.475 0 00-.177-.374.475.475 0 00.177-.374.832.832 0 00-.072-.34l-.582-1.309a.663.663 0 01-.056-.267c0-.128.074-.24.18-.272a.27.27 0 01.244.038c.07.051.109.13.109.215 0 .107-.069.142-.098.152-.046.016-.09.007-.104-.011-.012-.015-.01-.056.032-.123a.089.089 0 10-.15-.096c-.113.178-.052.29-.021.33.063.079.18.106.294.07-.037.157-.071.307.073.451a.089.089 0 10.125-.126c-.07-.07-.062-.13-.024-.288.022-.095.05-.213.05-.36a.445.445 0 00-.091-.266h.002a.089.089 0 100-.177H2.75a.444.444 0 00.091-.267 1.49 1.49 0 00-.05-.36c-.038-.158-.047-.216.024-.288a.089.089 0 10-.125-.125c-.144.144-.11.293-.073.452-.113-.037-.231-.01-.294.07-.031.04-.092.15.022.329a.089.089 0 10.15-.095c-.043-.068-.045-.11-.033-.124.014-.018.058-.027.104-.011.03.01.098.045.098.152 0 .086-.04.164-.109.215a.271.271 0 01-.244.038c-.106-.032-.18-.144-.18-.272 0-.091.02-.184.057-.267l.581-1.31a.83.83 0 00.072-.339.475.475 0 00-.177-.374.475.475 0 00.177-.375.832.832 0 00-.072-.34L2.188 8.34a.663.663 0 01-.057-.267c0-.128.074-.24.18-.273a.271.271 0 01.244.04c.07.05.109.128.109.214 0 .106-.069.142-.098.152-.046.016-.09.007-.104-.011-.012-.015-.01-.056.032-.123a.089.089 0 10-.15-.096c-.113.178-.052.29-.021.329.063.08.18.107.294.07-.037.158-.071.308.073.452a.089.089 0 00.125 0 .089.089 0 000-.126c-.07-.07-.062-.13-.024-.288a1.49 1.49 0 00.05-.36.445.445 0 00-.091-.266h.003a.089.089 0 100-.178H2.75a.444.444 0 00.091-.266c0-.146-.028-.265-.05-.36zm-.9-.378c-.032-.095-.021-.15 0-.168.013-.013.034-.012.047-.006.016.007.016.018.016.024a.089.089 0 10.178 0c0-.006 0-.017.016-.024a.045.045 0 01.047.006c.02.019.032.073 0 .168a4.77 4.77 0 01-.152.344 4.715 4.715 0 01-.153-.344zm.152 3.665a.439.439 0 00.09.093.44.44 0 00-.09.093.44.44 0 00-.09-.093.44.44 0 00.09-.093zm0 5.329a.439.439 0 00.09.093.44.44 0 00-.09.093.44.44 0 00-.09-.093.44.44 0 00.09-.093zm.152 3.851c.032.095.02.149 0 .168a.047.047 0 01-.048.006c-.016-.007-.016-.018-.016-.024a.089.089 0 10-.177 0c0 .006 0 .017-.016.024a.047.047 0 01-.048-.006c-.02-.02-.031-.073 0-.168a4.64 4.64 0 01.153-.345c.045.095.129.276.152.345zm-.064-1.093a.439.439 0 00-.088.092.44.44 0 00-.089-.092.442.442 0 00.089-.093.44.44 0 00.088.093zm.477-2.023l-.565 1.27-.565-1.27a.663.663 0 01-.057-.268c0-.128.074-.24.18-.272a.271.271 0 01.245.039c.068.05.108.129.108.214 0 .107-.069.142-.098.153-.046.016-.09.006-.104-.011-.011-.015-.01-.057.032-.124a.089.089 0 10-.15-.095c-.113.178-.052.289-.02.329.063.081.184.109.3.068a.307.307 0 00.04-.017v.225a.089.089 0 00-.178.005c0 .058.04.159.178.19v.165a.089.089 0 10.177 0v-.165c.138-.031.178-.132.178-.19a.092.092 0 00-.089-.092.086.086 0 00-.088.086v-.223a.307.307 0 00.04.017c.115.04.236.012.3-.07.031-.039.092-.15-.022-.328a.089.089 0 10-.15.095c.043.067.045.109.033.124-.014.017-.058.027-.104.01-.03-.01-.098-.045-.098-.152 0-.085.04-.163.109-.214a.27.27 0 01.244-.039c.106.033.18.144.18.272a.66.66 0 01-.056.268zm0-1.284a.663.663 0 01.056.268c0 .127-.074.24-.18.272a.27.27 0 01-.244-.039.264.264 0 01-.109-.214c0-.107.069-.143.098-.153.046-.016.09-.007.104.011.012.015.01.057-.032.124a.089.089 0 10.15.095c.113-.178.052-.29.021-.329-.064-.081-.185-.109-.3-.069a.338.338 0 00-.04.017v-.224a.089.089 0 00.177-.005c0-.058-.04-.159-.178-.19v-.166a.089.089 0 10-.177 0v.166c-.137.031-.178.132-.178.19 0 .049.04.091.089.091a.085.085 0 00.088-.085v.223a.306.306 0 00-.039-.017c-.116-.04-.237-.012-.3.069-.032.04-.093.151.02.329a.089.089 0 10.15-.095c-.042-.067-.043-.109-.031-.124.014-.018.057-.027.103-.01.03.01.098.045.098.152 0 .085-.04.163-.108.214a.27.27 0 01-.245.039c-.106-.033-.18-.145-.18-.272 0-.092.02-.184.057-.268l.565-1.271.565 1.271zm-.477-2.023a.442.442 0 00-.088.093.44.44 0 00-.089-.093.44.44 0 00.089-.092.441.441 0 00.088.092zm.477-2.022l-.565 1.27-.565-1.27a.663.663 0 01-.057-.268c0-.128.074-.24.18-.272a.27.27 0 01.245.039c.068.05.108.129.108.214 0 .107-.069.142-.098.152-.046.017-.09.007-.104-.01-.011-.016-.01-.057.032-.124a.089.089 0 10-.15-.095c-.113.177-.052.289-.02.329.063.08.184.108.3.068a.321.321 0 00.04-.017v.225a.089.089 0 00-.178.005c0 .058.04.158.178.19v.165a.089.089 0 10.177 0v-.166c.138-.03.178-.131.178-.19a.092.092 0 00-.089-.091.086.086 0 00-.089.086v-.224a.307.307 0 00.04.017c.116.04.237.013.301-.069.031-.04.092-.15-.022-.329a.089.089 0 10-.15.096c.043.067.045.108.033.123-.014.018-.058.027-.104.011-.03-.01-.098-.045-.098-.152 0-.085.04-.164.109-.214a.271.271 0 01.244-.04c.106.033.18.145.18.273a.66.66 0 01-.056.268zm0-1.284a.663.663 0 01.056.267c0 .128-.074.24-.18.272a.27.27 0 01-.244-.038.264.264 0 01-.109-.215c0-.107.069-.142.098-.152.046-.016.09-.007.104.011.012.015.01.056-.032.123a.089.089 0 10.15.096c.113-.178.052-.29.021-.33-.064-.08-.185-.108-.3-.068a.314.314 0 00-.04.017v-.225a.089.089 0 00.177-.005c0-.058-.04-.158-.178-.19V9.12a.089.089 0 10-.177 0v.166c-.137.031-.178.131-.178.19 0 .048.04.091.089.091a.086.086 0 00.088-.086v.224a.312.312 0 00-.039-.017c-.116-.04-.237-.012-.3.069-.032.04-.093.15.02.329a.089.089 0 10.15-.095c-.042-.068-.043-.109-.031-.124.014-.018.057-.027.103-.011.03.01.098.045.098.152 0 .086-.04.164-.108.215a.27.27 0 01-.245.038c-.106-.032-.18-.144-.18-.272 0-.091.02-.184.057-.267l.565-1.271.565 1.27zm-.654-2.023a.44.44 0 00.089-.093.44.44 0 00.088.093.44.44 0 00-.088.093.439.439 0 00-.089-.093zm10.74 6.419a2.138 2.138 0 100-4.276 2.138 2.138 0 000 4.276zm.159-4.864a.16.16 0 01-.32 0c0-.088.16-.48.16-.48s.16.392.16.48zm-.321 5.452a.16.16 0 01.321 0c0 .089-.16.481-.16.481s-.16-.392-.16-.48zm2.887-2.565a.16.16 0 110-.321c.089 0 .481.16.481.16s-.392.16-.48.16zm-5.453-.321a.16.16 0 010 .32c-.088 0-.48-.16-.48-.16s.392-.16.48-.16zm4.77-1.654a.16.16 0 01-.227-.226c.063-.063.453-.227.453-.227s-.164.39-.226.454zm-4.083 3.628a.16.16 0 01.227.227c-.062.063-.453.227-.453.227s.164-.39.226-.454zm3.856.227a.16.16 0 11.227-.226c.062.062.226.453.226.453s-.39-.164-.453-.227zM10.88 9.939a.16.16 0 11-.227.226c-.063-.062-.227-.453-.227-.453s.39.164.453.227zm.917-.539a.16.16 0 11-.296.122c-.034-.081-.036-.505-.036-.505s.298.3.332.383zm1.789 5.16a.16.16 0 11.297-.123c.034.081.036.505.036.505s-.299-.301-.333-.383zm1.687-3.476a.16.16 0 01-.123-.296c.082-.034.506-.036.506-.036s-.302.298-.383.332zm-5.159 1.791a.16.16 0 11.122.296c-.082.034-.506.036-.506.036s.302-.299.384-.332zm3.769-3.353a.16.16 0 11-.297-.122c.034-.082.333-.383.333-.383s-.002.424-.036.505zM11.5 14.436a.16.16 0 11.297.123c-.034.082-.332.383-.332.383s.002-.424.036-.506zm3.65-1.266a.16.16 0 01.123-.296c.081.034.383.333.383.333s-.424-.002-.506-.036zm-4.914-2.382a.16.16 0 11-.123.296c-.081-.034-.383-.332-.383-.332s.425.002.506.036zm2.081-1.513a.16.16 0 11-.315.062c-.017-.087.064-.503.064-.503s.234.354.251.44zm.749 5.409a.16.16 0 11.314-.062c.017.087-.063.503-.063.503s-.234-.354-.251-.44zm2.333-3.079a.16.16 0 11-.063-.315c.087-.017.503.064.503.064s-.354.234-.44.251zm-5.412.749a.16.16 0 11.063.314c-.087.018-.503-.063-.503-.063s.354-.234.44-.251zm4.353-2.552a.16.16 0 01-.266-.178c.05-.074.4-.311.4-.311s-.084.415-.133.49zm-3.296 4.355a.16.16 0 01.267.178c-.05.074-.4.31-.4.31s.084-.415.133-.488zm3.824-.53a.16.16 0 11.178-.266c.074.049.311.4.311.4s-.415-.085-.489-.134zm-4.352-3.295a.16.16 0 11-.178.266c-.073-.049-.31-.4-.31-.4s.415.085.488.134zm.794-.708a.16.16 0 01-.266.178c-.05-.074-.134-.489-.134-.489s.351.237.4.31zm2.764 4.711a.16.16 0 01.267-.178c.049.073.134.489.134.489s-.352-.238-.401-.311zm.972-3.737a.16.16 0 01-.178-.266c.074-.05.49-.134.49-.134s-.238.351-.312.4zm-4.708 2.762a.16.16 0 01.178.267c-.073.05-.489.134-.489.134s.238-.351.311-.4zm3.042-4.023a.16.16 0 11-.314-.062c.017-.087.25-.441.25-.441s.081.416.064.503zm-1.378 5.285a.16.16 0 01.315.062c-.017.087-.251.44-.251.44s-.08-.415-.064-.502zm3.334-1.954a.16.16 0 01.063-.314c.087.017.44.25.44.25s-.416.082-.503.064zM10.05 11.29a.16.16 0 11-.063.315c-.086-.017-.44-.251-.44-.251s.416-.08.503-.063z" fill="#FFE15A"/><path d="M17.72 12.542a.122.122 0 00-.16.066l-.007.017c-.093.217-.284.533-.478.83.18-.58.345-1.2.357-1.243a.123.123 0 00-.237-.065c-.084.302-.256.698-.415 1.034.03-.374.035-.721.035-.746a.123.123 0 00-.117-.125c-.063.002-.123.048-.128.114-.157 2.16-2.235 3.126-2.437 3.214a5.03 5.03 0 00-1.046.222 2.489 2.489 0 00-.137.053.123.123 0 00-.051-.008c-1.374.099-2.47-.465-3.256-1.672a5.899 5.899 0 01-.783-1.879.122.122 0 10-.24.045c.004.027.086.445.311.995a5.15 5.15 0 01-.586-1.353c-.001-.006-.005-.01-.007-.016-.004-.008-.007-.017-.012-.024-.003-.006-.008-.01-.012-.014l-.022-.02-.015-.006c-.009-.004-.018-.009-.028-.01-.007-.002-.014-.001-.021-.001-.007 0-.014-.002-.022 0l-.005.001h-.004c-.007.002-.012.006-.018.008l-.022.01c-.007.005-.011.011-.017.017-.005.006-.011.01-.015.017-.005.007-.007.014-.01.021-.003.008-.007.014-.008.022-.002.008-.001.016-.001.025 0 .006-.002.013 0 .02l.001.008v.002c.077.447.257.91.42 1.263-.259-.294-.476-.633-.553-.834-.002-.006-.006-.01-.01-.015a.095.095 0 00-.014-.024l-.015-.011a.076.076 0 00-.023-.017l-.017-.005c-.01-.003-.018-.006-.027-.006l-.023.002c-.007.001-.014 0-.021.002l-.004.002h-.004c-.006.003-.011.008-.017.012-.007.004-.015.007-.02.013-.007.005-.01.012-.016.019-.004.006-.01.011-.013.018-.003.007-.004.015-.006.023-.002.007-.005.014-.006.022l.003.024c0 .007 0 .014.002.02.133.431.454.943.705 1.304a2.842 2.842 0 01-.408-.389l-.014-.017a.123.123 0 00-.19.155l.027.032c.184.219.384.423.566.595l-.249-.105a.122.122 0 00-.121.21c.024.018.464.347.845.541a.978.978 0 01-.126-.004.123.123 0 00-.056.236c.01.004.126.051.27.102a.122.122 0 00-.016.22c.013.007.186.107.4.195a.123.123 0 00.033.168c.038.025.871.59 1.844.59.063 0 .128-.002.193-.007a.123.123 0 10-.02-.244c-.61.05-1.2-.18-1.55-.355a.627.627 0 00.08-.024.123.123 0 00-.044-.237c-.142-.003-.339-.072-.508-.146a.58.58 0 00.105-.066.123.123 0 00-.06-.215 1.544 1.544 0 01-.184-.046.256.256 0 00.105-.101.123.123 0 00-.084-.175.736.736 0 01-.107-.034.123.123 0 00-.011-.184 7.183 7.183 0 01-.242-.2.122.122 0 00.053-.191 8.827 8.827 0 01-.23-.306c.043.034.087.068.13.096a.123.123 0 00.151-.015c.01-.01.018-.02.024-.032.074.08.152.152.234.213.011.008.024.008.036.012.035.058.071.117.109.175.745 1.146 1.794 1.76 3.053 1.796-.116.07-.242.143-.44.221a2.85 2.85 0 00-.121.051.116.116 0 00-.051.022c-.348.161-.492.32-.55.431-.059.111-.008.224.063.283a.125.125 0 00.135.015.126.126 0 00.07-.116c.005-.005.027-.023.093-.025.05-.004.152.007.271.016.114.01.25.02.396.028l-.197.228a.123.123 0 00.098.203c.096-.004.162-.005.205-.006a.2.2 0 00.114.076c.085.022.169-.012.232-.052a.304.304 0 00.134.055.39.39 0 00.222-.042c.06.039.117.049.162.049h.002a.402.402 0 00.238-.093.301.301 0 00.141.043c.088.004.16-.03.21-.062a.485.485 0 00.42-.136.219.219 0 00.121.03.285.285 0 00.197-.103c.196.023.337-.013.418-.11a.293.293 0 00.067-.165c.543-.003.593-.3.597-.336a.123.123 0 00-.115-.136l-1.425-.085a.122.122 0 00-.126.093.392.392 0 01-.1.164c-.103.098-.268.15-.447.177a.122.122 0 00-.166-.12c-.295.114-.77.1-1.143.074.057-.047.126-.093.18-.123a.123.123 0 00.062-.13.118.118 0 00-.067-.082c.103-.052.188-.102.269-.151.14-.086.272-.167.512-.25a4.818 4.818 0 011.008-.211.124.124 0 00.035-.01c.02-.007 1.536-.642 2.25-2.108a2.33 2.33 0 01-.03.12.122.122 0 00.2.126 1.86 1.86 0 01-.119.268.123.123 0 00.078.183 3.835 3.835 0 01-.167.228.123.123 0 00.003.157 2.95 2.95 0 01-.245.237.123.123 0 00-.037.14.82.82 0 01-.15.072.122.122 0 00-.035.216 3.84 3.84 0 01-.246.058.123.123 0 00-.037.226c.004.002.046.026.11.053-.237.096-.66.22-1.356.29a.123.123 0 00-.11.133.124.124 0 00.134.11c1.32-.13 1.727-.46 1.744-.474a.123.123 0 00-.023-.203c.422-.133.603-.28.612-.287a.123.123 0 00.028-.157c-.031-.052-.095-.074-.15-.052a.497.497 0 01-.073.019 15.739 15.739 0 00.778-.577.122.122 0 00-.155-.19l-.06.047c-.06.045-.138.096-.223.149.32-.365.644-.76.736-.873l.025-.031a.122.122 0 00-.19-.154H17.5l-.03.037a6.598 6.598 0 01-.3.34c.328-.593.575-1.177.612-1.263l.004-.01a.122.122 0 00-.066-.159zm-5.746 4.133l.034.004a.577.577 0 00-.101.126 4.473 4.473 0 00-.153-.01c.057-.038.13-.078.22-.12z" fill="#FFE15A"/></svg>