<svg width="17" height="25" fill="none" xmlns="http://www.w3.org/2000/svg"><circle cx="1.025" cy="19.716" r="1.025" fill="#171729"/><circle cx="1.025" cy="1.912" r="1.025" fill="#171729"/><circle cx="4.428" cy="1.912" r="1.025" fill="#171729"/><circle cx="15.428" cy="19.716" r="1.025" fill="#171729"/><circle cx="15.428" cy="11.73" r="1.025" fill="#171729"/><circle cx="8.225" cy="23.861" r="1.025" fill="#171729"/><path fill="#171729" d="M.961.887h3.491v2.487H.961z"/><path fill="#171729" d="M0 1.934h1.745v17.804H0zm3.707 0h1.745v17.804H3.707zm11 9.731h1.745v8.073h-1.745zM8.551 7.694h1.745v7.156H8.551z"/><path fill="#171729" d="M10.301 11.359h4.756v3.491h-4.756z"/><path fill="#171729" d="M11.914 13.323h3.709v7.113h-3.709z"/><path fill="#171729" d="M3.707 18.079h9.295v3.753H3.707z"/><path fill="#171729" d="M5.848 21.091h4.844v1.833H5.848zM10.035 8.96l4.146 2.225-.175.829h-3.97V8.959zM1.484 2.894h2.444v17.542H1.484z"/><path fill="#171729" d="M1.395 19.083l7.255 4.19-.872 1.51-7.256-4.189zm7.164-12.48l7.558 4.364-.873 1.511-6.685-4.37V6.604z"/><path fill="#171729" d="M16.058 20.52l-7.386 4.264-.872-1.511 7.386-4.264z"/></svg>