<svg width="22" height="32" fill="none" xmlns="http://www.w3.org/2000/svg"><circle cx="1.367" cy="25.106" r="1.367" fill="#0ACCDA"/><circle cx="1.367" cy="1.367" r="1.367" fill="#0ACCDA"/><circle cx="5.902" cy="1.367" r="1.367" fill="#0ACCDA"/><circle cx="20.57" cy="25.106" r="1.367" fill="#0ACCDA"/><circle cx="20.57" cy="14.458" r="1.367" fill="#0ACCDA"/><circle cx="10.965" cy="30.633" r="1.367" fill="#0ACCDA"/><path fill="#0ACCDA" d="M1.281 0h4.655v3.316H1.281z"/><path fill="#0ACCDA" d="M0 1.396h2.327v23.738H0zm4.941 0h2.327v23.738H4.941zm14.668 12.975h2.327v10.764h-2.327zm-8.207-5.294h2.327v9.542h-2.327z"/><path fill="#0ACCDA" d="M13.734 13.964h6.342v4.655h-6.342z"/><path fill="#0ACCDA" d="M15.887 16.582h4.945v9.484h-4.945z"/><path fill="#0ACCDA" d="M4.941 22.923h12.393v5.004H4.941z"/><path fill="#0ACCDA" d="M7.797 26.939h6.458v2.444H7.797zm5.582-16.176l5.527 2.967-.232 1.105h-5.295v-4.072zM1.98 2.676h3.258v23.389H1.98z"/><path fill="#0ACCDA" d="M1.859 24.262l9.674 5.585-1.163 2.016-9.675-5.586zm9.551-16.64l10.078 5.818-1.164 2.016-8.914-5.827V7.622z"/><path fill="#0ACCDA" d="M21.41 26.177l-9.848 5.686-1.164-2.016 9.849-5.686z"/></svg>